{
	"asset":{
		"generator":"Khronos glTF Blender I/O v4.0.44",
		"version":"2.0"
	},
	"scene":0,
	"scenes":[
		{
			"name":"Scene",
			"nodes":[
				0
			]
		}
	],
	"nodes":[
		{
			"mesh":0,
			"name":"COIN.001",
			"scale":[
				1.7063199281692505,
				1.7063199281692505,
				0.0990222841501236
			],
			"translation":[
				-0.03335462883114815,
				1.1999835968017578,
				-0.08009883761405945
			]
		}
	],
	"materials":[
		{
			"doubleSided":true,
			"name":"Material.005",
			"normalTexture":{
				"index":0
			},
			"pbrMetallicRoughness":{
				"baseColorTexture":{
					"index":1
				},
				"metallicRoughnessTexture":{
					"index":2
				}
			}
		},
		{
			"doubleSided":true,
			"name":"Material.007",
			"normalTexture":{
				"index":3
			},
			"pbrMetallicRoughness":{
				"baseColorTexture":{
					"index":4
				},
				"metallicRoughnessTexture":{
					"index":5
				}
			}
		}
	],
	"meshes":[
		{
			"name":"Mesh.009",
			"primitives":[
				{
					"attributes":{
						"POSITION":0,
						"NORMAL":1,
						"TEXCOORD_0":2,
						"TEXCOORD_1":3
					},
					"indices":4,
					"material":0
				},
				{
					"attributes":{
						"POSITION":5,
						"NORMAL":6,
						"TEXCOORD_0":7,
						"TEXCOORD_1":8
					},
					"indices":9,
					"material":1
				}
			]
		}
	],
	"textures":[
		{
			"sampler":0,
			"source":0
		},
		{
			"sampler":0,
			"source":1
		},
		{
			"sampler":0,
			"source":2
		},
		{
			"sampler":0,
			"source":3
		},
		{
			"sampler":0,
			"source":4
		},
		{
			"sampler":0,
			"source":5
		}
	],
	"images":[
		{
			"mimeType":"image/png",
			"name":"DefaultMaterial_Normal",
			"uri":"DefaultMaterial_Normal.png"
		},
		{
			"mimeType":"image/png",
			"name":"DefaultMaterial_Base_Color",
			"uri":"DefaultMaterial_Base_Color.png"
		},
		{
			"mimeType":"image/png",
			"name":"DefaultMaterial_Metallic.png-DefaultMaterial_Roughness.png",
			"uri":"DefaultMaterial_Metallic_png-DefaultMaterial_Roughness_png.png"
		},
		{
			"mimeType":"image/png",
			"name":"DefaultMaterial_Normal_OpenGL",
			"uri":"DefaultMaterial_Normal_OpenGL.png"
		},
		{
			"mimeType":"image/png",
			"name":"DefaultMaterial_Base_Color",
			"uri":"DefaultMaterial_Base_Color-1.png"
		},
		{
			"mimeType":"image/png",
			"name":"DefaultMaterial_Metallic.png-DefaultMaterial_Roughness.png",
			"uri":"DefaultMaterial_Metallic_png-DefaultMaterial_Roughness_png-1.png"
		}
	],
	"accessors":[
		{
			"bufferView":0,
			"componentType":5126,
			"count":1938,
			"max":[
				1.0519505739212036,
				1.049875259399414,
				1.640742540359497
			],
			"min":[
				-1.0519511699676514,
				-1.0498758554458618,
				-1.640742540359497
			],
			"type":"VEC3"
		},
		{
			"bufferView":1,
			"componentType":5126,
			"count":1938,
			"type":"VEC3"
		},
		{
			"bufferView":2,
			"componentType":5126,
			"count":1938,
			"type":"VEC2"
		},
		{
			"bufferView":3,
			"componentType":5126,
			"count":1938,
			"type":"VEC2"
		},
		{
			"bufferView":4,
			"componentType":5123,
			"count":10200,
			"type":"SCALAR"
		},
		{
			"bufferView":5,
			"componentType":5126,
			"count":7268,
			"max":[
				0.7460557222366333,
				0.8894098997116089,
				1.5631628036499023
			],
			"min":[
				-0.6867460012435913,
				-0.7016188502311707,
				-1.392438292503357
			],
			"type":"VEC3"
		},
		{
			"bufferView":6,
			"componentType":5126,
			"count":7268,
			"type":"VEC3"
		},
		{
			"bufferView":7,
			"componentType":5126,
			"count":7268,
			"type":"VEC2"
		},
		{
			"bufferView":8,
			"componentType":5126,
			"count":7268,
			"type":"VEC2"
		},
		{
			"bufferView":9,
			"componentType":5123,
			"count":20412,
			"type":"SCALAR"
		}
	],
	"bufferViews":[
		{
			"buffer":0,
			"byteLength":23256,
			"byteOffset":0,
			"target":34962
		},
		{
			"buffer":0,
			"byteLength":23256,
			"byteOffset":23256,
			"target":34962
		},
		{
			"buffer":0,
			"byteLength":15504,
			"byteOffset":46512,
			"target":34962
		},
		{
			"buffer":0,
			"byteLength":15504,
			"byteOffset":62016,
			"target":34962
		},
		{
			"buffer":0,
			"byteLength":20400,
			"byteOffset":77520,
			"target":34963
		},
		{
			"buffer":0,
			"byteLength":87216,
			"byteOffset":97920,
			"target":34962
		},
		{
			"buffer":0,
			"byteLength":87216,
			"byteOffset":185136,
			"target":34962
		},
		{
			"buffer":0,
			"byteLength":58144,
			"byteOffset":272352,
			"target":34962
		},
		{
			"buffer":0,
			"byteLength":58144,
			"byteOffset":330496,
			"target":34962
		},
		{
			"buffer":0,
			"byteLength":40824,
			"byteOffset":388640,
			"target":34963
		}
	],
	"samplers":[
		{
			"magFilter":9729,
			"minFilter":9987
		}
	],
	"buffers":[
		{
			"byteLength":429464,
			"uri":"coin.bin"
		}
	]
}
