{"accessors" : [{"bufferView" : 0, "byteOffset" : 0, "componentType" : 5123, "count" : 62802, "type" : "SCALAR", "max" : [62801], "min" : [0]}, {"bufferView" : 1, "byteOffset" : 0, "componentType" : 5126, "count" : 62802, "type" : "VEC3", "max" : [16.30324363708496, 15.667848587036133, 1.7473499774932861], "min" : [-17.058902740478516, -17.62847900390625, -1.7473499774932861], "name" : "POSITION"}, {"bufferView" : 1, "byteOffset" : 12, "componentType" : 5126, "count" : 62802, "type" : "VEC3", "max" : [1.0000044107437134, 1.0000044107437134, 1.0000044107437134], "min" : [-1.0000044107437134, -1.0000044107437134, -1.0000044107437134], "name" : "NORMAL"}, {"bufferView" : 1, "byteOffset" : 24, "componentType" : 5126, "count" : 62802, "type" : "VEC2", "max" : [1, 1], "min" : [0, 0.006426990032196045], "name" : "TEXCOORD_0"}, {"bufferView" : 1, "byteOffset" : 32, "componentType" : 5126, "count" : 62802, "type" : "VEC2", "max" : [8.279998779296875, 4.15070104598999], "min" : [-4.915955066680908, -7.279998779296875], "name" : "TEXCOORD_1"}, {"bufferView" : 1, "byteOffset" : 40, "componentType" : 5126, "count" : 62802, "type" : "VEC2", "max" : [0.65625, 1], "min" : [0, 0.0003082752227783203], "name" : "TEXCOORD_2"}], "asset" : {"generator" : "Aspose.3D 24.1.0", "version" : "2.0"}, "buffers" : [{"uri" : "data:application/octet-stream;base64,", "byteLength" : 3140108}], "bufferViews" : [{"buffer" : 0, "byteOffset" : 0, "byteLength" : 125604, "target" : 34963}, {"buffer" : 0, "byteOffset" : 125608, "byteLength" : 3014496, "byteStride" : 48, "target" : 34962}], "materials" : [{"name" : "Gold.001", "pbrMetallicRoughness" : {"baseColorFactor" : [0.8000000715255737, 0.7694514989852905, 0.6819367408752441, 1], "metallicFactor" : 1, "roughnessFactor" : 1}, "emissiveFactor" : [0, 0, 0], "alphaMode" : "OPAQUE", "doubleSided" : false}], "meshes" : [{"primitives" : [{"attributes" : {"POSITION" : 1, "NORMAL" : 2, "TEXCOORD_0" : 3, "TEXCOORD_1" : 4, "TEXCOORD_2" : 5}, "indices" : 0, "material" : 0, "mode" : 4}], "name" : "Asset 1PO"}], "nodes" : [{"matrix" : [100, 0, 0, 0, 0, -1.6292067955264296E-05, -99.99999999999866, 0, 0, 99.99999999999866, -1.6292067955264296E-05, 0, 125.11949157714844, 1392.7156982421875, -3015.41552734375, 1], "mesh" : 0, "name" : "COIN"}], "scene" : 0, "scenes" : [{"nodes" : [0]}]}