<svg width="59" height="59" viewBox="0 0 59 59" fill="none" xmlns="http://www.w3.org/2000/svg">
<path d="M53.9795 4.93409C52.5023 3.45682 50.7 2.275 48.75 1.53636C46.8886 0.827273 44.7614 0.325 41.6 0.177273C38.4386 0.0295456 37.4341 0 29.4273 0C21.6427 0 20.4771 0.0279284 17.513 0.165244M53.9795 4.93409L17.513 0.165244M53.9795 4.93409C55.4864 6.41136 56.6386 8.18409 57.3773 10.1636M53.9795 4.93409L57.3773 10.1636M17.513 0.165244C17.4528 0.168032 17.3919 0.170864 17.3302 0.173742C17.3243 0.174018 17.3183 0.174294 17.3124 0.174571L17.3136 0.206818L17.2609 0.312376M17.513 0.165244L17.349 0.923681C17.3462 0.92381 17.3435 0.923938 17.3407 0.924067C17.3237 0.92486 17.3067 0.925656 17.2896 0.926455L17.2609 0.312376M17.2609 0.312376L17.256 0.20904C17.2501 0.209273 17.2442 0.209507 17.2383 0.209742C16.7413 0.229573 16.269 0.259142 15.8186 0.29785L16.9191 0.848095L16.9782 0.87764L17.2609 0.312376ZM57.3773 10.1636C58.1159 12.0545 58.6182 14.1818 58.7364 17.3136M57.3773 10.1636L58.7364 17.3136M58.7364 17.3136C58.8841 20.475 58.9136 21.45 58.9136 29.4864C58.9136 37.5227 58.8841 38.4977 58.7364 41.6295V17.3136ZM11.7934 5.79689L11.7934 5.79693C12.8881 5.39033 14.5304 4.86873 17.4836 4.74634C20.6026 4.56818 21.5751 4.56818 29.3988 4.56818H29.4273C37.2874 4.56818 38.2487 4.59769 41.3674 4.74619C44.3055 4.86758 45.954 5.35468 47.0701 5.80028C48.4374 6.31049 49.7078 7.13581 50.7281 8.18553C51.7864 9.21434 52.5804 10.4905 53.087 11.8521L53.0872 11.8525C53.4939 12.9477 54.0158 14.5909 54.1379 17.5465C54.2864 20.665 54.3159 21.6265 54.3159 29.4864C54.3159 37.3462 54.2864 38.3077 54.1379 41.4262M11.7934 5.79689L53.3886 41.3932M11.7934 5.79689L11.7863 5.79961C10.2968 6.37004 9.23429 7.07864 8.13056 8.18151C7.07646 9.2049 6.27951 10.4492 5.7697 11.8461C5.32482 12.9611 4.83857 14.6074 4.68735 17.5409L4.68721 17.5439C4.53861 20.6645 4.50909 21.6243 4.50909 29.4864C4.50909 37.3464 4.5386 38.3078 4.6871 41.4265C4.80896 44.3756 5.32902 46.0239 5.77205 47.1325C6.34242 48.62 7.04987 49.679 8.11886 50.7794L8.1188 50.7795L8.12649 50.7871C9.23834 51.899 10.3006 52.5726 11.7735 53.1681L11.776 53.1691C12.8923 53.6156 14.5418 54.1049 17.4874 54.2265C20.6059 54.375 21.5675 54.4045 29.4273 54.4045C37.2871 54.4045 38.2486 54.375 41.3671 54.2265M11.7934 5.79689L41.3671 54.2265M54.1379 41.4262C54.1379 41.4271 54.1378 41.428 54.1378 41.4289L53.3886 41.3932M54.1379 41.4262C54.1379 41.4255 54.138 41.4248 54.138 41.4241L53.3886 41.3932M54.1379 41.4262C54.0164 44.3673 53.5285 46.0162 53.0825 47.1324M53.3886 41.3932C53.2705 44.2591 52.7977 45.825 52.3841 46.8591M53.0825 47.1324C53.0832 47.1307 53.0838 47.129 53.0845 47.1273L52.3841 46.8591M53.0825 47.1324C52.5153 48.612 51.8389 49.6764 50.7281 50.7871C49.6229 51.8923 48.5595 52.602 47.0682 53.1731L47.0612 53.1758L47.0611 53.1758C45.966 53.5826 44.3227 54.1044 41.3671 54.2265M53.0825 47.1324C53.0818 47.1342 53.0811 47.1359 53.0804 47.1376L52.3841 46.8591M52.3841 46.8591C51.8523 48.2477 51.2318 49.2227 50.1977 50.2568C49.1636 51.2909 48.1886 51.9409 46.8 52.4727L41.3671 54.2265M41.3671 54.2265C41.368 54.2265 41.3689 54.2265 41.3698 54.2264L41.3341 53.4773L41.365 54.2266C41.3657 54.2266 41.3664 54.2266 41.3671 54.2265ZM10.4312 56.7062C10.431 56.7061 10.4308 56.706 10.4306 56.7059L10.1636 57.4068L10.4321 56.7065C10.4318 56.7064 10.4315 56.7063 10.4312 56.7062ZM56.677 48.5111C56.6768 48.5115 56.6766 48.512 56.6764 48.5124C56.6764 48.5125 56.6764 48.5125 56.6764 48.5125L57.3773 48.7795L56.677 48.5111ZM29.7068 15.4044L29.7091 15.4044C37.4283 15.5448 43.6607 21.7749 43.8046 29.4933C43.8008 37.4372 37.3721 43.8636 29.4273 43.8636C21.4837 43.8636 15.0535 37.4384 15.0205 29.493C15.1939 21.5487 21.7641 15.236 29.7068 15.4044ZM18.8386 29.4864C18.8386 35.3369 23.5767 40.075 29.4273 40.075C35.2779 40.075 40.0159 35.3369 40.0159 29.4864C40.0159 23.6358 35.2779 18.8977 29.4273 18.8977C23.5767 18.8977 18.8386 23.6358 18.8386 29.4864ZM47.9409 13.7386C47.9409 15.2744 46.6812 16.5341 45.1455 16.5341C43.6097 16.5341 42.35 15.2744 42.35 13.7386C42.35 12.2028 43.6097 10.9432 45.1455 10.9432C46.6812 10.9432 47.9409 12.2029 47.9409 13.7386Z" fill="white" stroke="black" stroke-width="1.5"/>
</svg>
