<svg width="28" height="29" viewBox="0 0 28 29" fill="none" xmlns="http://www.w3.org/2000/svg">
<path d="M9.21914 1.29922C10.5062 1.23908 10.9152 1.22705 14.175 1.22705C17.4348 1.22705 17.8438 1.23908 19.1308 1.29922C20.4179 1.35937 21.284 1.56386 22.0418 1.85255C22.8357 2.15327 23.5695 2.63442 24.1709 3.23585C24.7844 3.83729 25.2535 4.55902 25.5542 5.36495C25.8549 6.13479 26.0594 7.00086 26.1075 8.27591C26.1677 9.56299 26.1797 9.95994 26.1797 13.2318C26.1797 16.5036 26.1677 16.9005 26.1075 18.1756C26.0474 19.4627 25.8429 20.3287 25.5542 21.0865C25.2479 21.8856 24.7765 22.6111 24.1709 23.2156C23.5093 23.8772 22.8357 24.2982 22.0418 24.5989C21.272 24.8997 20.4059 25.1042 19.1308 25.1523C17.8438 25.2124 17.4468 25.2244 14.187 25.2244C10.9272 25.2244 10.5182 25.2124 9.24319 25.1523C7.95612 25.0921 7.09004 24.8876 6.33223 24.5989C5.53318 24.2926 4.8077 23.8213 4.20314 23.2156C3.58967 22.6142 3.12055 21.8925 2.81983 21.0865C2.51911 20.3167 2.31462 19.4506 2.26651 18.1756C2.20636 16.8885 2.19434 16.4916 2.19434 13.2318C2.19434 9.97196 2.20636 9.56299 2.26651 8.28794C2.32665 7.00086 2.53114 6.13479 2.81983 5.37698C3.12055 4.58308 3.58967 3.84932 4.20314 3.24788C4.80458 2.63442 5.5263 2.16529 6.33223 1.86458C7.09004 1.56386 7.96814 1.35937 9.24319 1.31125L9.21914 1.29922ZM19.0226 3.4644C17.7596 3.40426 17.3746 3.39223 14.175 3.39223C10.9753 3.39223 10.5904 3.39223 9.32739 3.4644C8.1606 3.51252 7.52308 3.71701 7.10207 3.87338C6.53672 4.0899 6.13977 4.35453 5.71877 4.77554C5.32182 5.16046 5.0211 5.62958 4.82864 6.15884C4.66023 6.57985 4.46777 7.21738 4.40763 8.38417C4.34749 9.64719 4.33546 10.0321 4.33546 13.2318C4.33546 16.4314 4.34749 16.8163 4.40763 18.0794C4.45574 19.2461 4.66023 19.8837 4.82864 20.3047C5.04515 20.87 5.30979 21.267 5.71877 21.688C6.13977 22.109 6.53672 22.3616 7.10207 22.5901C7.52308 22.7585 8.1606 22.951 9.32739 22.9991C10.5904 23.0593 10.9753 23.0713 14.175 23.0713C17.3746 23.0713 17.7596 23.0593 19.0226 22.9991C20.1894 22.951 20.8269 22.7465 21.2479 22.5901C21.8133 22.3736 22.2102 22.109 22.6312 21.688C23.0522 21.267 23.3048 20.87 23.5213 20.3047C23.6897 19.8837 23.8822 19.2461 23.9303 18.0794C23.9905 16.8163 24.0025 16.4314 24.0025 13.2318C24.0025 10.0321 23.9905 9.64719 23.9303 8.38417C23.8822 7.21738 23.6777 6.57985 23.5213 6.15884C23.3289 5.64161 23.0282 5.16046 22.6312 4.77554C22.2463 4.37859 21.7651 4.06584 21.2479 3.87338C20.8269 3.70498 20.1894 3.51252 19.0226 3.4644ZM8.00423 13.2318C8.0764 9.82762 10.8911 7.12115 14.2953 7.19332C17.6032 7.25346 20.2736 9.92385 20.3337 13.2318C20.3337 16.6359 17.5791 19.3905 14.175 19.3905C10.7708 19.3905 8.01626 16.6359 8.00423 13.2318ZM10.1694 13.2318C10.1694 15.4451 11.9617 17.2373 14.175 17.2373C16.3883 17.2373 18.1806 15.4451 18.1806 13.2318C18.1806 11.0185 16.3883 9.22618 14.175 9.22618C11.9617 9.22618 10.1694 11.0185 10.1694 13.2318ZM20.5743 8.26388C21.3682 8.26388 22.0177 7.61433 22.0177 6.82043C22.0177 6.02653 21.3682 5.37698 20.5743 5.37698C19.7804 5.37698 19.1308 6.02653 19.1308 6.82043C19.1308 7.61433 19.7804 8.26388 20.5743 8.26388Z" fill="white"/>
</svg>
