<svg width="88" height="98" viewBox="0 0 88 98" fill="none" xmlns="http://www.w3.org/2000/svg">
<path d="M52.6871 72.6978C58.7306 73.2134 62.7487 74.1342 62.7487 75.1777C62.7487 76.7942 53.1495 78.1037 41.308 78.1037C29.4664 78.1037 19.8672 76.7942 19.8672 75.1777C19.8672 74.1342 23.8853 73.2134 29.9288 72.6978" stroke="white" stroke-width="0.990645" stroke-miterlimit="10"/>
<path d="M38.906 93.3517C39.6548 93.3804 40.465 93.3968 41.3079 93.3968C42.1508 93.3968 42.9814 93.3804 43.7384 93.3477" stroke="white" stroke-width="0.990645" stroke-miterlimit="10"/>
<path d="M28.2019 77.4899C29.1716 71.1222 34.671 66.2441 41.3078 66.2441C47.9446 66.2441 53.4439 71.1222 54.4137 77.4899" stroke="white" stroke-width="0.990645" stroke-miterlimit="10"/>
<path d="M32.3345 77.8337C33.1242 73.5981 36.8477 70.3774 41.3077 70.3774C45.7677 70.3774 49.4953 73.594 50.2809 77.8337" stroke="white" stroke-width="0.990645" stroke-miterlimit="10"/>
<path d="M36.5325 78.0299C37.1626 75.996 39.0653 74.5105 41.3075 74.5105C43.5498 74.5105 45.4443 75.9919 46.0785 78.0217" stroke="white" stroke-width="0.990645" stroke-miterlimit="10"/>
<path d="M39.982 8.82056L8.11139 30.4567L7.05981 31.1442C7.05981 31.1442 14.204 35.6867 17.5224 38.2772C17.5224 38.2772 33.4925 40.9945 41.3078 43.454C49.123 40.9986 65.1177 38.2772 65.1177 38.2772C68.4361 35.6867 75.5557 31.1442 75.5557 31.1442L74.5082 30.4567L42.6335 8.82056" stroke="white" stroke-width="0.990645" stroke-miterlimit="10"/>
<path d="M65.1177 38.2771C62.9818 46.7728 55.4079 53.7789 46.7007 55.7554" stroke="white" stroke-width="0.990645" stroke-miterlimit="10"/>
<path d="M35.9149 55.7554C27.2077 53.7789 19.6625 46.7728 17.5266 38.2771" stroke="white" stroke-width="0.990645" stroke-miterlimit="10"/>
<path d="M34.5848 41.8618C34.5602 43.5151 35.3131 45.9541 39.7936 46.4002H39.81C40.391 46.4616 41.1643 49.7805 41.1643 49.7805C41.1889 49.9524 41.4344 49.9524 41.4548 49.7805C41.4548 49.7805 42.2323 46.4616 42.8215 46.4002C47.302 45.9582 48.0548 43.5192 48.0303 41.8618" stroke="white" stroke-width="0.990645" stroke-miterlimit="10"/>
<path d="M36.0051 56.9915V67.3491" stroke="white" stroke-width="0.990645" stroke-miterlimit="10"/>
<path d="M39.54 57.2368V66.3627" stroke="white" stroke-width="0.990645" stroke-miterlimit="10"/>
<path d="M46.6108 56.9915V67.3491" stroke="white" stroke-width="0.990645" stroke-miterlimit="10"/>
<path d="M65.1174 38.2771C65.3097 40.9289 65.0724 43.2411 66.2959 46.3267C67.2124 48.6389 69.2665 50.906 70.6904 52.5839" stroke="white" stroke-width="0.990645" stroke-miterlimit="10"/>
<path d="M34.1924 50.8857C36.1196 51.7083 38.5992 52.2035 41.3079 52.2035C44.0167 52.2035 46.4963 51.7083 48.4235 50.8857" stroke="white" stroke-width="0.990645" stroke-miterlimit="10"/>
<path d="M5.14478 32.4006L7.05971 31.1443" stroke="white" stroke-width="0.990645" stroke-miterlimit="10"/>
<path d="M39.1555 1L39.982 5.8044V8.82454C39.982 9.15602 40.5754 9.42611 41.3078 9.42611C42.0402 9.42611 42.6335 9.15602 42.6335 8.82454V5.8044L43.46 1H39.1596H39.1555Z" stroke="white" stroke-width="0.990645" stroke-miterlimit="10"/>
<path d="M39.9821 8.82056L17.5266 38.2772" stroke="white" stroke-width="0.990645" stroke-miterlimit="10"/>
<path d="M41.3079 9.42188V43.4537" stroke="white" stroke-width="0.990645" stroke-miterlimit="10"/>
<path d="M77.4706 32.4006L75.5557 31.1443" stroke="white" stroke-width="0.990645" stroke-miterlimit="10"/>
<path d="M42.6335 8.82056L65.1177 38.2772" stroke="white" stroke-width="0.990645" stroke-miterlimit="10"/>
<path d="M29.9614 41.1216C28.5089 45.2344 30.2642 53.3454 35.9149 55.7517" stroke="white" stroke-width="0.990645" stroke-miterlimit="10"/>
<path d="M5.14478 57.3105C7.67757 53.3082 14.9159 50.4027 19.6459 54.0244C25.1862 58.2681 25.4276 66.2441 25.4276 73.2092" stroke="white" stroke-width="0.990645" stroke-miterlimit="10"/>
<path d="M32.9525 83.4399C34.9042 84.0129 34.8019 86.5337 34.2209 87.475C33.5048 88.629 32.1832 89.2838 30.8616 89.5866" stroke="white" stroke-width="0.990645" stroke-miterlimit="10"/>
<path d="M39.982 84.3733C40.5058 84.8316 40.829 85.4578 40.8863 86.1003C41.0991 88.5679 37.973 91.0479 35.9353 91.6945" stroke="white" stroke-width="0.990645" stroke-miterlimit="10"/>
<path d="M34.5933 84.9748C35.5957 84.0704 36.8192 83.6366 37.9321 83.6285C38.5909 83.6244 39.4788 83.9313 39.9821 84.3692" stroke="white" stroke-width="0.990645" stroke-miterlimit="10"/>
<path d="M40.8861 86.1001C41.3935 85.6213 43.423 85.7236 44.0204 86.8408C44.3437 87.4505 44.135 88.2445 43.7954 88.7478C37.76 97.6855 25.0511 96.6296 19.3308 95.582C13.2341 94.4648 7.6693 90.6876 4.38363 85.4289C1.09795 80.1703 0.136391 71.0403 1.80173 65.0655C4.35908 54.1922 12.5958 50.5254 15.2309 46.7891C16.7775 44.5916 17.3299 40.9248 17.5222 38.2771" stroke="white" stroke-width="0.990645" stroke-miterlimit="10"/>
<path d="M62.7199 75.325C60.4039 81.6558 56.9464 93.3517 43.7341 93.3517" stroke="white" stroke-width="0.990645" stroke-miterlimit="10"/>
<path d="M19.8792 75.28C20.497 78.071 23.3899 84.2873 25.5749 85.073C26.4751 85.3963 27.4816 85.0443 28.3573 84.6637C29.2329 84.2832 30.0594 83.7839 30.976 83.5138C31.6143 83.3255 32.3222 83.2683 32.9523 83.4401" stroke="white" stroke-width="0.990645" stroke-miterlimit="10"/>
<path d="M23.0217 82.4374C21.5159 80.0516 17.5183 83.0144 15.9921 84.9747C12.8291 89.0465 14.2121 94.739 19.8669 95.6761" stroke="white" stroke-width="0.990645" stroke-miterlimit="10"/>
<path d="M61.8035 61.9555C60.0236 61.8327 56.9507 61.8859 56.9507 64.7628C56.9507 68.6955 62.6669 67.3492 64.6432 69.027C65.3592 69.6327 67.8347 73.2053 71.55 71.3269" stroke="white" stroke-width="0.990645" stroke-miterlimit="10"/>
<path d="M59.4997 57.4866C59.0864 56.6149 58.1985 52.6249 61.5373 51.9988" stroke="white" stroke-width="0.990645" stroke-miterlimit="10"/>
<path d="M63.5344 57.4866C62.6506 56.2671 60.2937 52.4326 62.5769 50.7016C65.036 49.0401 66.9346 51.1599 68.0435 52.8541" stroke="white" stroke-width="0.990645" stroke-miterlimit="10"/>
<path d="M75.8217 57.4456C75.0647 56.8359 73.4362 55.5181 73.4362 55.5181C73.4362 55.5181 71.9182 51.5363 68.6898 52.6208C65.4614 53.7052 65.9442 56.4266 66.4025 57.6584C67.094 59.5123 70.4206 59.6064 70.9812 55.7514" stroke="white" stroke-width="0.990645" stroke-miterlimit="10"/>
<path d="M65.7886 69.9152C65.7886 69.9152 66.3041 75.5544 64.4219 79.6427C60.2974 88.5926 60.8785 94.6738 66.2959 96.2207C75.3551 98.807 89.3448 90.2868 86.6647 74.1426C85.9322 69.731 81.906 62.1971 75.8215 57.45" stroke="white" stroke-width="0.990645" stroke-miterlimit="10"/>
<path d="M71.7175 62.2788C71.8771 62.7371 72.1717 63.2732 72.5768 63.9157C73.6447 65.6182 74.9377 67.3615 76.3371 66.5267C77.3846 65.9005 77.1636 64.6155 75.9279 62.9418" stroke="white" stroke-width="0.990645" stroke-miterlimit="10"/>
<path d="M65.8418 62.4015C65.9032 63.1504 66.2919 64.0875 66.7011 65.0983C67.499 67.0708 68.3828 69.338 70.2527 68.5277C71.7503 67.877 71.0915 66.0846 70.0849 64.0343C69.7944 63.4409 69.4548 62.7943 69.0702 62.2378" stroke="white" stroke-width="0.990645" stroke-miterlimit="10"/>
<path d="M31.7861 57.4867L66.296 57.4622" stroke="white" stroke-width="0.990645" stroke-miterlimit="10"/>
<path d="M70.4001 57.4619L83.7597 57.4456" stroke="white" stroke-width="0.990645" stroke-miterlimit="10"/>
<path d="M86.2231 63.6497L46.6108 60.8997" stroke="white" stroke-width="0.990645" stroke-miterlimit="10"/>
<path d="M63.7715 81.1238C63.7715 81.1238 78.2195 88.5923 86.9431 76.5117" stroke="white" stroke-width="0.990645" stroke-miterlimit="10"/>
<path d="M36.0051 51.5159V57.4907" stroke="white" stroke-width="0.990645" stroke-miterlimit="10"/>
<path d="M39.54 52.1338V57.4825" stroke="white" stroke-width="0.990645" stroke-miterlimit="10"/>
<path d="M43.0754 57.4824V66.3628" stroke="white" stroke-width="0.990645" stroke-miterlimit="10"/>
<path d="M43.0754 52.1338V57.4825" stroke="white" stroke-width="0.990645" stroke-miterlimit="10"/>
<path d="M46.6108 51.5159V57.4907" stroke="white" stroke-width="0.990645" stroke-miterlimit="10"/>
<path d="M52.6542 41.1216C54.1067 45.2344 52.3473 53.3454 46.7007 55.7517" stroke="white" stroke-width="0.990645" stroke-miterlimit="10"/>
<path d="M36.0047 60.1629L31.7861 59.8723" stroke="white" stroke-width="0.990645" stroke-miterlimit="10"/>
</svg>
