<svg width="27" height="29" viewBox="0 0 27 29" fill="none" xmlns="http://www.w3.org/2000/svg">
<path fill-rule="evenodd" clip-rule="evenodd" d="M18.2847 1.22705C18.6816 4.63119 20.5822 6.66405 23.8901 6.88057V10.7177C21.9775 10.9102 20.2935 10.2727 18.3448 9.09386V16.263C18.3448 25.3688 8.42107 28.2076 4.42752 21.688C1.86539 17.4899 3.42913 10.1163 11.6568 9.82762V13.8693C11.0313 13.9655 10.3577 14.1339 9.74424 14.3384C7.91586 14.9519 6.88139 16.1187 7.17008 18.1636C7.7234 22.0849 14.9166 23.2397 14.3152 15.5894V1.23908H18.2847V1.22705Z" fill="white"/>
<path fill-rule="evenodd" clip-rule="evenodd" d="M18.2847 1.22705C18.6816 4.63119 20.5822 6.66405 23.8901 6.88057V10.7177C21.9775 10.9102 20.2935 10.2727 18.3448 9.09386V16.263C18.3448 25.3688 8.42107 28.2076 4.42752 21.688C1.86539 17.4899 3.42913 10.1163 11.6568 9.82762V13.8693C11.0313 13.9655 10.3577 14.1339 9.74424 14.3384C7.91586 14.9519 6.88139 16.1187 7.17008 18.1636C7.7234 22.0849 14.9166 23.2397 14.3152 15.5894V1.23908H18.2847V1.22705Z" fill="white"/>
<path fill-rule="evenodd" clip-rule="evenodd" d="M18.2847 1.22705C18.6816 4.63119 20.5822 6.66405 23.8901 6.88057V10.7177C21.9775 10.9102 20.2935 10.2727 18.3448 9.09386V16.263C18.3448 25.3688 8.42107 28.2076 4.42752 21.688C1.86539 17.4899 3.42913 10.1163 11.6568 9.82762V13.8693C11.0313 13.9655 10.3577 14.1339 9.74424 14.3384C7.91586 14.9519 6.88139 16.1187 7.17008 18.1636C7.7234 22.0849 14.9166 23.2397 14.3152 15.5894V1.23908H18.2847V1.22705Z" fill="white"/>
</svg>
